<?xml version="1.0" encoding="utf-8"?>
<!-- Generator: Adobe Illustrator 23.1.0, SVG Export Plug-In . SVG Version: 6.00 Build 0)  -->
<svg version="1.1" id="Layer_1" xmlns="http://www.w3.org/2000/svg" xmlns:xlink="http://www.w3.org/1999/xlink" x="0px" y="0px"
	 viewBox="0 0 47.5 24.8" style="enable-background:new 0 0 47.5 24.8;" xml:space="preserve">
<style type="text/css">
	.st0{fill:#17170D;}
</style>
<g>
	<g>
		<path class="st0" d="M21.1,2h-2.4v4h2.4V2z M20.4,5h-1.1V3h1.1V5z"/>
		<path class="st0" d="M21.1,6.7h-2.4v4h2.4V6.7z M20.4,9.6h-1.1v-2h1.1V9.6z"/>
		<path class="st0" d="M26.2,16.6l2,5.8v-9.6C25.1,13.2,26.5,14.8,26.2,16.6z"/>
		<polygon class="st0" points="26.2,22.7 28.2,22.7 26.2,17.1 		"/>
		<polygon class="st0" points="26.3,2 28.2,5.2 28.2,2 		"/>
		<path class="st0" d="M26.2,11c-1.7,0-6,0-7.6,0v11.7H21V12h5.1v1.1c3.1-0.7,1.7-0.8,2-4.9c0.4-3.2-0.8-3.8-2-5.9V11H26.2z
			 M20.4,19.8h-1.1v-5.9h1.1V19.8z"/>
	</g>
	<path class="st0" d="M16.3,2.7h-2.7V6h2.7V2.7z M15.6,5.2h-1.2V3.5h1.2V5.2z"/>
	<rect x="13" y="6.5" class="st0" width="3.9" height="11.6"/>
	<path class="st0" d="M30.6,2.4c-0.1-0.1-0.4,0-0.4,0.1c-0.1,2.9-0.3,6.3-0.3,9.5l0,0l-0.2,10.7h1.1c0,0-0.2-1.8-0.2-3.7
		C32.3,6.3,44.2,13.2,30.6,2.4z M32.4,8.3c2.5-1.2,1.6,2.1,0.3,1.6C31.6,9,31.8,8.8,32.4,8.3z"/>
	<path class="st0" d="M16.3,18.7c-1.1,0-2.1,0-2.7,0v3.9h2.7v-3.4V19V18.7z M15.6,21.7h-1.2v-2h1.2V21.7z"/>
	<g>
		<path class="st0" d="M42.1,4.3c-1.7,0-2,1-2,2.2c0,4.4,0,8.7-0.1,13.1c0,0.1,0,0.1,0,0.2c0,1.3,0.4,2.3,2.1,2.3
			c1.8,0,2.1-1.2,2.1-2.4v-0.1c0-2.1,0-4.2,0-6.3c0-2.3,0-4.6,0-6.9C44.2,5.3,43.8,4.3,42.1,4.3z M43.5,19.6c0,0.8-0.2,1.5-1.3,1.5
			s-1.4-0.7-1.4-1.5v-0.1c0-1.8,0-3.5,0-5.3h2.7c0,0.4,0,0.9,0,1.3C43.5,16.9,43.5,18.2,43.5,19.6L43.5,19.6z"/>
		<path class="st0" d="M39.1,18.8c0-0.2,0-0.4,0-0.6v-0.1c0-1.7,0-3.3,0-5c0-2.4,0-4.8,0-7.2c0-1.7,1.1-2.5,3-2.6
			c2,0,3.2,0.8,3.2,2.6c0,4.3,0,8.6,0,13H46c0-4.4,0-8.7,0-13.1c0-2-1.4-3-3.9-3c-2.3,0-3.7,1.1-3.7,3c0,4.4,0,8.7,0,13.1L39.1,18.8
			L39.1,18.8z"/>
		<path class="st0" d="M45.3,19.6H45v0.1c0,0.7-0.1,1.4-0.3,1.9c-0.2,0.3-0.4,0.5-0.6,0.7c-1,0.8-2.2,0.4-3.4,0.2
			c-0.9-0.1-1.3-1.7-1.4-2.9h-0.9c0,0.3,0,0.6,0,0.9c0,2,1.5,3.1,3.9,3.1s3.8-1.1,3.8-3.1c0-0.3,0-0.6,0-0.9
			C46.1,19.6,45.3,19.6,45.3,19.6z"/>
	</g>
	<path class="st0" d="M5.1,7.2c0.7-1,1.3-2,2-2.9c0.1-0.2,0.4-0.2,0.5-0.1C8.1,4.6,8.5,5,8.9,5.5l0,0c0.2,0.2,0.4,0.2,0.6,0l1-1.2
		c0.1-0.2,0.1-0.4,0-0.5L8.1,1.7c-0.2-0.3-0.6-0.4-1-0.4s-0.8,0.3-1,0.6L1.9,8C1.8,8.1,1.8,8.3,2,8.5l6.7,6.4
		c0.1,0.1,0.2,0.3,0.1,0.5l-2.2,3.9c-0.1,0.2-0.4,0.3-0.6,0.1l-4-3.7c-0.2-0.2-0.5-0.1-0.6,0.1l-0.7,1.4c-0.1,0.1,0,0.3,0.1,0.4
		L2.3,19c1.2,1.2,2.5,2.3,3.7,3.4c0.2,0.2,0.4,0.3,0.7,0.3h0.1c0.4-0.1,0.6-0.5,0.8-0.7l0.1-0.1c0.9-1.7,1.8-3.3,2.7-5
		c0.2-0.4,0.5-0.9,0.7-1.3l0.4-0.8c0.1-0.1,0-0.3-0.1-0.4L4.8,8.1C4.7,8,4.7,7.8,4.8,7.6L5.1,7.2z"/>
</g>
</svg>
